<svg xmlns="http://www.w3.org/2000/svg" xmlns:xlink="http://www.w3.org/1999/xlink" viewBox="0 0 585.59 94.26"><defs><style>.cls-1{fill:url(#linear-gradient);}</style><linearGradient id="linear-gradient" x1="-129.03" y1="51.31" x2="604.27" y2="44.43" gradientUnits="userSpaceOnUse"><stop offset="0" stop-color="#157fff"/><stop offset="1" stop-color="#e900bd"/></linearGradient></defs><g id="Layer_2" data-name="Layer 2"><g id="Layer_1-2" data-name="Layer 1"><path class="cls-1" d="M31.84,22.28c11.2,0,18.88,5.28,23,11.07V23.41H72.62V93.13H54.87V82.94c-4.15,6-12.08,11.32-23.15,11.32C14.1,94.26,0,79.79,0,58S14.1,22.28,31.84,22.28Zm4.53,15.48C26.93,37.76,18,44.8,18,58s8.93,20.76,18.37,20.76c9.69,0,18.5-7.29,18.5-20.51S46.06,37.76,36.37,37.76ZM84.82,0h17.62V53l23.41-29.57h22.91l-30.71,35,31,34.73H126.1l-23.66-29.7v29.7H84.82ZM180,94.26c-17.49,0-29.7-10.19-30.46-23.15h17.75c.63,5.28,5.54,9.31,12.58,9.31s10.7-3.15,10.7-7.17c0-12.46-39.39-4.53-39.39-30.08,0-11.58,10.32-20.89,27.56-20.89,16.87,0,27.06,9.18,28.07,23H189.91c-.5-5.41-4.78-9.06-11.7-9.06-6.55,0-10,2.64-10,6.67,0,12.71,38.64,4.78,39.15,30.33C207.41,85.2,197,94.26,180,94.26Zm64.18-72c11.2,0,18.88,5.28,23,11.07V23.41h17.74V93.13H267.19V82.94C263,89,255.1,94.26,244,94.26c-17.62,0-31.72-14.47-31.72-36.24S226.41,22.28,244.15,22.28Zm4.53,15.48c-9.43,0-18.37,7-18.37,20.26s8.94,20.76,18.37,20.76c9.7,0,18.51-7.29,18.51-20.51S258.38,37.76,248.68,37.76Zm66.08,55.37H297.14V23.41h17.62V34.23A24.18,24.18,0,0,1,336.15,22.4V40.9H331.5c-10.45,0-16.74,4-16.74,17.5Zm55.5-70.85c11.2,0,18.88,5.28,23,11.07V23.41H411V93.13H393.29V82.94c-4.15,6-12.08,11.32-23.16,11.32-17.62,0-31.71-14.47-31.71-36.24S352.51,22.28,370.26,22.28Zm4.53,15.48c-9.44,0-18.38,7-18.38,20.26s8.94,20.76,18.38,20.76c9.69,0,18.5-7.29,18.5-20.51S384.48,37.76,374.79,37.76Zm75.13,56.5c-17.49,0-29.7-10.19-30.46-23.15h17.75c.63,5.28,5.54,9.31,12.59,9.31s10.69-3.15,10.69-7.17c0-12.46-39.39-4.53-39.39-30.08,0-11.58,10.32-20.89,27.56-20.89,16.87,0,27.06,9.18,28.07,23H459.86c-.5-5.41-4.78-9.06-11.7-9.06-6.55,0-9.94,2.64-9.94,6.67,0,12.71,38.63,4.78,39.14,30.33C477.36,85.2,466.91,94.26,449.92,94.26Zm64.19-72c11.2,0,18.87,5.28,23,11.07V23.41h17.74V93.13H537.14V82.94C533,89,525.06,94.26,514,94.26c-17.62,0-31.71-14.47-31.71-36.24S496.36,22.28,514.11,22.28Zm4.53,15.48c-9.44,0-18.38,7-18.38,20.26s8.94,20.76,18.38,20.76c9.69,0,18.5-7.29,18.5-20.51S528.33,37.76,518.64,37.76ZM574.89,94c-6.42,0-10.95-4.53-10.95-10.32s4.53-10.32,10.95-10.32c6.17,0,10.7,4.53,10.7,10.32S581.06,94,574.89,94Z"/></g></g></svg>