<svg xmlns="http://www.w3.org/2000/svg" xmlns:xlink="http://www.w3.org/1999/xlink" viewBox="0 0 147.64 105.43"><defs><style>.cls-1{fill:url(#linear-gradient);}</style><linearGradient id="linear-gradient" x1="-52.86" y1="52.72" x2="138.87" y2="52.72" gradientUnits="userSpaceOnUse"><stop offset="0" stop-color="#157fff"/><stop offset="1" stop-color="#e900bd"/></linearGradient></defs><g id="Layer_2" data-name="Layer 2"><g id="Layer_1-2" data-name="Layer 1"><path class="cls-1" d="M46.63,0C63,0,74.28,7.74,80.37,16.22V1.66h26V103.78h-26V88.84c-6.09,8.85-17.7,16.59-33.92,16.59C20.64,105.43,0,84.24,0,52.35S20.64,0,46.63,0Zm6.64,22.67C39.45,22.67,26.36,33,26.36,52.35S39.45,82.76,53.27,82.76c14.19,0,27.1-10.69,27.1-30S67.46,22.67,53.27,22.67ZM132,105.07c-9.4,0-16-6.64-16-15.12s6.64-15.11,16-15.11c9,0,15.66,6.63,15.66,15.11S141,105.07,132,105.07Z"/></g></g></svg>